<svg width="273" height="75" viewBox="0 0 273 75" fill="none" xmlns="http://www.w3.org/2000/svg">
<path d="M120.7 0.647564C98.8 2.74756 78.9 8.64756 55 20.0476C46.4 24.2476 43.5 24.4476 35.4 21.5476C17.3 15.2476 0 26.9476 0 45.6476C0 57.0476 6.5 66.8476 16.5 70.5476C25.3 73.8476 36.6 71.2476 43.8 64.3476C48.7 59.6476 50.2 56.1476 51.1 47.2476C51.6 41.9476 52.6 38.3476 53.8 36.7476C56.2 33.4476 71.7 25.6476 83.5 21.6476C99.6 16.2476 109.9 14.5476 129.5 13.9476C145.1 13.4476 149.2 13.7476 160.5 15.6476C176.7 18.3476 190.4 22.8476 204.7 29.9476C218.6 36.9476 220 38.6476 220 48.0476C220 56.8476 222.1 61.7476 228 67.0476C234.4 72.7476 240 74.9476 247.4 74.4476C258 73.7476 266.1 67.9476 270.8 57.8476C275 48.5476 273 38.5476 265.1 30.3476C258 22.8476 250.2 20.7476 238.2 23.2476C228.5 25.2476 223.9 24.6476 215 20.1476C184.2 4.64756 150.9 -2.25244 120.7 0.647564ZM31.5 34.0476C39.1 37.2476 40.7 49.6476 34.3 56.0476C29.2 61.1476 18.3 60.1476 14.5 54.2476C13.5 52.7476 12.5 49.6476 12.3 47.3476C11.1 36.6476 21.1 29.7476 31.5 34.0476ZM255.1 38.4476C257.8 40.8476 258.4 42.1476 258.8 46.8476C259.6 56.3476 254.9 61.6476 245.8 61.6476C237 61.6476 232.2 55.5476 233.3 45.8476C233.7 42.3476 234.5 40.5476 236.9 38.4476C239.6 36.0476 240.9 35.6476 246 35.6476C251.1 35.6476 252.4 36.0476 255.1 38.4476Z" fill="black"/>
</svg>
